<svg width="18" height="21" viewBox="0 0 18 21" fill="none" xmlns="http://www.w3.org/2000/svg">
<path fill-rule="evenodd" clip-rule="evenodd" d="M2.5146 14.1836L3.6946 13.0016C4.0726 12.6236 4.2806 12.1216 4.2806 11.5876V6.91061C4.2806 5.55361 4.8706 4.25661 5.9006 3.35461C6.9386 2.44461 8.2606 2.04461 9.6376 2.22561C11.9646 2.53461 13.7196 4.63861 13.7196 7.12061V11.5876C13.7196 12.1216 13.9276 12.6236 14.3046 13.0006L15.4856 14.1836H2.5146ZM10.9996 16.5246C10.9996 17.4236 10.0836 18.1836 8.9996 18.1836C7.9156 18.1836 6.9996 17.4236 6.9996 16.5246V16.1836H10.9996V16.5246ZM17.5206 13.3916L15.7196 11.5876V7.12061C15.7196 3.63961 13.2176 0.68261 9.8996 0.24361C7.9776 -0.0123899 6.0376 0.57461 4.5826 1.85061C3.1186 3.13261 2.2806 4.97661 2.2806 6.91061L2.2796 11.5876L0.478603 13.3916C0.0096029 13.8616 -0.129397 14.5606 0.124603 15.1736C0.379603 15.7876 0.972603 16.1836 1.6366 16.1836H4.9996V16.5246C4.9996 18.5426 6.7936 20.1836 8.9996 20.1836C11.2056 20.1836 12.9996 18.5426 12.9996 16.5246V16.1836H16.3626C17.0266 16.1836 17.6186 15.7876 17.8726 15.1746C18.1276 14.5606 17.9896 13.8606 17.5206 13.3916Z" fill="#768298"/>
</svg>
